<svg width="25" height="24" viewBox="0 0 25 24" fill="none" xmlns="http://www.w3.org/2000/svg">
<path d="M11.75 16.15V18.85C11.75 21.1 10.85 22 8.6 22H5.9C3.65 22 2.75 21.1 2.75 18.85V16.15C2.75 13.9 3.65 13 5.9 13H8.6C10.85 13 11.75 13.9 11.75 16.15Z" stroke="#78808C" stroke-width="1.5" stroke-linecap="round" stroke-linejoin="round"/>
<path d="M22.75 15C22.75 18.87 19.62 22 15.75 22L16.8 20.25" stroke="#78808C" stroke-width="1.5" stroke-linecap="round" stroke-linejoin="round"/>
<path d="M2.75 9C2.75 5.13 5.88 2 9.75 2L8.7 3.75" stroke="#78808C" stroke-width="1.5" stroke-linecap="round" stroke-linejoin="round"/>
<path d="M18.25 11C20.7353 11 22.75 8.98528 22.75 6.5C22.75 4.01472 20.7353 2 18.25 2C15.7647 2 13.75 4.01472 13.75 6.5C13.75 8.98528 15.7647 11 18.25 11Z" stroke="#78808C" stroke-width="1.5" stroke-linecap="round" stroke-linejoin="round"/>
</svg>
